<svg width="53" height="47" viewBox="0 0 53 47" fill="none" xmlns="http://www.w3.org/2000/svg">
<path d="M25.3805 35.7616L28.2571 38.73C27.8102 38.9494 27.3434 39.1369 26.8647 39.3005C26.3659 39.4681 25.8513 39.6077 25.3246 39.7154C24.2155 39.9588 23.0505 40.0705 21.8536 40.0705L15.4621 46.6575C14.736 47.252 13.6627 46.5897 13.8622 45.6641L14.0218 40.0705C4.25898 40.0705 -0.744111 34.4051 0.0897374 24.4029C0.528605 19.1325 3.9398 14.7997 8.5519 12.7809C9.14238 12.5176 9.75281 12.2982 10.3792 12.1186C10.9737 11.9471 11.5801 11.8114 12.1985 11.7157C10.842 14.0337 10.06 16.7028 10.06 19.5076C10.06 33.6511 19.2882 35.7616 24.79 35.7616H25.3805Z" fill="#181632"/>
<path d="M52.8696 17.8319C52.0796 8.27252 43.7411 0.783844 33.8905 0.783844H26.2343C21.2432 0.783844 16.5074 2.73082 12.8967 6.27368C10.9697 8.1648 9.50145 10.3791 8.5519 12.7809C7.70608 14.9034 7.26721 17.1776 7.26721 19.5075C7.26721 31.2173 13.5789 38.2911 24.1916 38.5464L25.3246 39.7154L31.6244 46.2107L31.7401 46.3184C32.2228 46.7134 32.8053 46.9168 33.3878 46.9168C33.8546 46.9168 34.3294 46.7852 34.7563 46.5258C35.6779 45.9633 36.1487 44.9339 35.9811 43.8767L35.8295 38.5225C41.3872 38.2671 45.708 36.5037 48.6844 33.268C52.0158 29.6494 53.4241 24.4548 52.8696 17.8319ZM34.3932 35.7616H32.9569L33.1843 43.8088L28.2571 38.7299L25.3805 35.7616H24.79C19.2882 35.7616 10.06 33.6511 10.06 19.5075C10.06 16.7028 10.842 14.0337 12.1985 11.7156C15.0192 6.90006 20.3136 3.57664 26.2343 3.57664H33.8905C42.3008 3.57664 49.4145 9.94022 50.0887 18.0633C50.5715 23.8763 49.4065 28.3567 46.6297 31.3769C43.9526 34.2854 39.8352 35.7616 34.3932 35.7616Z" fill="#181632"/>
<path d="M20.3375 15.5218V23.8084C20.3375 24.5784 19.7111 25.2048 18.9411 25.2048C18.1711 25.2048 17.5447 24.5784 17.5447 23.8084V15.5218C17.5447 14.7518 18.1711 14.1254 18.9411 14.1254C19.7111 14.1254 20.3375 14.7518 20.3375 15.5218Z" fill="#181632"/>
<path d="M27.7943 13.0363V26.2941C27.7943 27.0641 27.1679 27.6905 26.3979 27.6905C25.6278 27.6905 25.0015 27.0641 25.0015 26.2941V13.0363C25.0015 12.765 25.0813 12.5096 25.2209 12.2942C25.4643 11.8992 25.8991 11.6399 26.3979 11.6399C27.1679 11.6399 27.7943 12.2662 27.7943 13.0363Z" fill="#181632"/>
<path d="M35.2509 13.0363V26.2941C35.2509 26.6132 35.1432 26.9045 34.9597 27.1399C34.7083 27.475 34.3054 27.6905 33.8545 27.6905C33.0805 27.6905 32.4581 27.0641 32.4581 26.2941V13.0363C32.4581 12.2662 33.0805 11.6399 33.8545 11.6399C34.6285 11.6399 35.2509 12.2662 35.2509 13.0363Z" fill="#181632"/>
<path d="M42.7038 15.5218V23.8084C42.7038 24.5784 42.0814 25.2048 41.3074 25.2048C40.5334 25.2048 39.911 24.5784 39.911 23.8084V15.5218C39.911 14.7518 40.5374 14.1254 41.3074 14.1254C42.0774 14.1254 42.7038 14.7518 42.7038 15.5218Z" fill="#181632"/>
</svg>
