<svg width="294" height="47" viewBox="0 0 294 47" fill="none" xmlns="http://www.w3.org/2000/svg">
<path d="M26.6775 7.86867H7.78714V20.4171H26.0372V27.461H7.78714V45.6494H0.423096V0.824799H26.6775V7.86867Z" fill="#181632"/>
<path d="M37.0462 19.0133C38.7949 15.0481 42.0828 13.0531 46.9101 13.0531V20.5403C44.2625 20.3679 41.9597 20.996 39.9894 22.4244C38.0191 23.8529 37.0462 26.2173 37.0462 29.5053V45.6372H30.1255V13.6319H37.0462V19.0133Z" fill="#181632"/>
<path d="M77.5234 13.6317H84.4441V45.6493H77.5234V41.0437C74.9127 44.6765 71.1814 46.4867 66.3172 46.4867C61.9209 46.4867 58.165 44.8489 55.0495 41.5855C51.9339 38.3222 50.37 34.3446 50.37 29.6405C50.37 24.9364 51.9339 20.9096 55.0495 17.6709C58.165 14.4322 61.9209 12.8067 66.3172 12.8067C71.1814 12.8067 74.9127 14.6046 77.5234 18.1881V13.644V13.6317ZM60.1723 36.9799C62.0934 38.9256 64.507 39.8985 67.4132 39.8985C70.3194 39.8985 72.733 38.9256 74.6541 36.9799C76.5751 35.0343 77.5357 32.596 77.5357 29.6528C77.5357 26.7097 76.5751 24.2591 74.6541 22.3257C72.733 20.38 70.3194 19.4072 67.4132 19.4072C64.507 19.4072 62.0934 20.38 60.1723 22.3257C58.2512 24.2714 57.2907 26.7097 57.2907 29.6528C57.2907 32.596 58.2512 35.0466 60.1723 36.9799Z" fill="#181632"/>
<path d="M104.739 12.8067C108.409 12.8067 111.377 13.9765 113.642 16.3286C115.908 18.6807 117.041 21.8947 117.041 25.9954V45.6493H110.12V26.6974C110.12 24.3084 109.48 22.4735 108.199 21.1928C106.919 19.9121 105.17 19.2717 102.953 19.2717C100.515 19.2717 98.5572 20.0352 97.0671 21.5499C95.5771 23.0646 94.8259 25.3797 94.8259 28.4953V45.6616H87.9052V13.6317H94.8259V17.7324C96.9193 14.4445 100.22 12.8067 104.751 12.8067H104.739Z" fill="#181632"/>
<path d="M137.397 46.4867C132.57 46.4867 128.555 44.8612 125.329 41.6225C122.103 38.3838 120.49 34.3816 120.49 29.6528C120.49 24.9241 122.103 20.8726 125.329 17.6462C128.555 14.4199 132.57 12.8067 137.397 12.8067C140.513 12.8067 143.357 13.5578 145.919 15.0479C148.48 16.5379 150.401 18.5452 151.682 21.0697L145.722 24.53C144.995 22.9907 143.899 21.7839 142.422 20.9096C140.944 20.0352 139.257 19.5919 137.336 19.5919C134.516 19.5919 132.164 20.5524 130.255 22.4735C128.358 24.3946 127.41 26.7836 127.41 29.6405C127.41 32.4975 128.358 34.8865 130.255 36.8075C132.151 38.7286 134.516 39.6891 137.336 39.6891C139.207 39.6891 140.907 39.2458 142.422 38.3468C143.936 37.4479 145.081 36.2534 145.845 34.7633L151.805 38.1621C150.438 40.7235 148.48 42.7554 145.919 44.2455C143.357 45.7355 140.513 46.4867 137.397 46.4867Z" fill="#181632"/>
<path d="M184.142 17.7819C180.879 14.5432 176.876 12.9177 172.135 12.9177C167.394 12.9177 163.454 14.5432 160.166 17.7819C156.878 21.0329 155.24 25.0228 155.24 29.7515C155.24 34.4803 156.878 38.4825 160.166 41.7212C163.454 44.9599 167.443 46.5854 172.135 46.5854C176.827 46.5854 180.879 44.9599 184.142 41.7212C187.405 38.4825 189.043 34.4803 189.043 29.7515C189.043 25.0228 187.405 21.0206 184.142 17.7819ZM179.241 36.9924C177.32 38.9135 174.955 39.874 172.135 39.874C169.315 39.874 166.951 38.9135 165.03 36.9924C163.109 35.0714 162.148 32.6577 162.148 29.7515C162.148 26.8453 163.109 24.4317 165.03 22.5106C166.951 20.5896 169.315 19.6291 172.135 19.6291C174.955 19.6291 177.32 20.5896 179.241 22.5106C181.162 24.4317 182.122 26.8453 182.122 29.7515C182.122 32.6577 181.162 35.0714 179.241 36.9924Z" fill="#181632"/>
<path d="M214.978 -6.10352e-05C218.056 -6.10352e-05 221.295 0.381687 224.706 1.1575L216.936 45.6619H209.978L216.862 6.15717C216.185 6.12022 215.187 6.09559 213.869 6.09559C208.82 6.09559 205.902 8.3984 205.138 13.0163L205.028 13.6567H210.988L209.83 20.3188H203.858L199.388 45.6742H192.43L196.9 20.3188H192.036L193.193 13.6567H198.082L198.193 13.0163C198.957 8.53385 200.718 5.2459 203.476 3.15244C206.234 1.05898 210.064 0.0122534 214.978 0.0122534V-6.10352e-05Z" fill="#181632"/>
<path d="M245.149 12.8062C249.927 12.8062 253.658 14.444 256.318 17.732C258.99 21.0199 259.877 25.0098 258.978 29.7016C258.596 31.2409 258.338 32.2014 258.215 32.5832H232.724C232.761 35.0584 233.573 36.9425 235.162 38.2232C236.738 39.5039 238.807 40.1443 241.368 40.1443C245.161 40.1443 248.178 38.802 250.395 36.1051L255.456 39.9472C251.959 44.3065 247.07 46.4739 240.79 46.4739C235.63 46.4739 231.677 44.7868 228.943 41.4126C226.209 38.0385 225.249 33.9008 226.061 28.9874C226.874 24.2956 229.066 20.4165 232.662 17.3625C236.246 14.3085 240.408 12.7815 245.149 12.7815V12.8062ZM233.684 26.8939H252.451C252.488 24.2463 251.799 22.2883 250.37 21.0076C248.942 19.7269 247.045 19.0865 244.706 19.0865C242.181 19.0865 239.952 19.7762 238.019 21.1677C236.073 22.5592 234.632 24.468 233.696 26.8939H233.684Z" fill="#181632"/>
<path d="M294 13.6441L279.777 29.5174L288.939 45.6617H281.378L275.147 34.6772L265.307 45.6617H256.921L271.896 28.951L263.202 13.6441H270.763L276.526 23.7912L285.614 13.6441H294Z" fill="#181632"/>
</svg>
