<svg width="364" height="47" viewBox="0 0 364 47" fill="none" xmlns="http://www.w3.org/2000/svg">
<path d="M96.6775 7.86867H77.7871V20.4171H96.0372V27.461H77.7871V45.6494H70.4231V0.824799H96.6775V7.86867Z" fill="#181632"/>
<path d="M107.046 19.0133C108.795 15.0481 112.083 13.0531 116.91 13.0531V20.5403C114.262 20.3679 111.96 20.996 109.989 22.4244C108.019 23.8529 107.046 26.2173 107.046 29.5053V45.6372H100.125V13.6319H107.046V19.0133Z" fill="#181632"/>
<path d="M147.523 13.6317H154.444V45.6493H147.523V41.0437C144.913 44.6765 141.181 46.4867 136.317 46.4867C131.921 46.4867 128.165 44.8489 125.049 41.5855C121.934 38.3222 120.37 34.3446 120.37 29.6405C120.37 24.9364 121.934 20.9096 125.049 17.6709C128.165 14.4322 131.921 12.8067 136.317 12.8067C141.181 12.8067 144.913 14.6046 147.523 18.1881V13.644V13.6317ZM130.172 36.9799C132.093 38.9256 134.507 39.8985 137.413 39.8985C140.319 39.8985 142.733 38.9256 144.654 36.9799C146.575 35.0343 147.536 32.596 147.536 29.6528C147.536 26.7097 146.575 24.2591 144.654 22.3257C142.733 20.38 140.319 19.4072 137.413 19.4072C134.507 19.4072 132.093 20.38 130.172 22.3257C128.251 24.2714 127.291 26.7097 127.291 29.6528C127.291 32.596 128.251 35.0466 130.172 36.9799Z" fill="#181632"/>
<path d="M174.739 12.8067C178.409 12.8067 181.377 13.9765 183.642 16.3286C185.908 18.6807 187.041 21.8947 187.041 25.9954V45.6493H180.12V26.6974C180.12 24.3084 179.48 22.4735 178.199 21.1928C176.919 19.9121 175.17 19.2717 172.953 19.2717C170.515 19.2717 168.557 20.0352 167.067 21.5499C165.577 23.0646 164.826 25.3797 164.826 28.4953V45.6616H157.905V13.6317H164.826V17.7324C166.919 14.4445 170.22 12.8067 174.751 12.8067H174.739Z" fill="#181632"/>
<path d="M207.397 46.4867C202.57 46.4867 198.555 44.8612 195.329 41.6225C192.103 38.3838 190.49 34.3816 190.49 29.6528C190.49 24.9241 192.103 20.8726 195.329 17.6462C198.555 14.4199 202.57 12.8067 207.397 12.8067C210.513 12.8067 213.357 13.5578 215.919 15.0479C218.48 16.5379 220.401 18.5452 221.682 21.0697L215.722 24.53C214.995 22.9907 213.899 21.7839 212.422 20.9096C210.944 20.0352 209.257 19.5919 207.336 19.5919C204.516 19.5919 202.164 20.5524 200.255 22.4735C198.358 24.3946 197.41 26.7836 197.41 29.6405C197.41 32.4975 198.358 34.8865 200.255 36.8075C202.151 38.7286 204.516 39.6891 207.336 39.6891C209.207 39.6891 210.907 39.2458 212.422 38.3468C213.936 37.4479 215.081 36.2534 215.845 34.7633L221.805 38.1621C220.438 40.7235 218.48 42.7554 215.919 44.2455C213.357 45.7355 210.513 46.4867 207.397 46.4867Z" fill="#181632"/>
<path d="M254.142 17.7819C250.879 14.5432 246.876 12.9177 242.135 12.9177C237.394 12.9177 233.454 14.5432 230.166 17.7819C226.878 21.0329 225.24 25.0228 225.24 29.7515C225.24 34.4803 226.878 38.4825 230.166 41.7212C233.454 44.9599 237.443 46.5854 242.135 46.5854C246.827 46.5854 250.879 44.9599 254.142 41.7212C257.405 38.4825 259.043 34.4803 259.043 29.7515C259.043 25.0228 257.405 21.0206 254.142 17.7819ZM249.241 36.9924C247.32 38.9135 244.955 39.874 242.135 39.874C239.315 39.874 236.951 38.9135 235.03 36.9924C233.109 35.0714 232.148 32.6577 232.148 29.7515C232.148 26.8453 233.109 24.4317 235.03 22.5106C236.951 20.5896 239.315 19.6291 242.135 19.6291C244.955 19.6291 247.32 20.5896 249.241 22.5106C251.162 24.4317 252.122 26.8453 252.122 29.7515C252.122 32.6577 251.162 35.0714 249.241 36.9924Z" fill="#181632"/>
<path d="M284.978 -6.10352e-05C288.056 -6.10352e-05 291.295 0.381687 294.706 1.1575L286.936 45.6619H279.978L286.862 6.15717C286.185 6.12022 285.187 6.09559 283.869 6.09559C278.82 6.09559 275.902 8.3984 275.138 13.0163L275.028 13.6567H280.988L279.83 20.3188H273.858L269.388 45.6742H262.43L266.9 20.3188H262.036L263.193 13.6567H268.082L268.193 13.0163C268.957 8.53385 270.718 5.2459 273.476 3.15244C276.234 1.05898 280.064 0.0122534 284.978 0.0122534V-6.10352e-05Z" fill="#181632"/>
<path d="M315.149 12.8062C319.927 12.8062 323.658 14.444 326.318 17.732C328.99 21.0199 329.877 25.0098 328.978 29.7016C328.596 31.2409 328.338 32.2014 328.215 32.5832H302.724C302.761 35.0584 303.573 36.9425 305.162 38.2232C306.738 39.5039 308.807 40.1443 311.368 40.1443C315.161 40.1443 318.178 38.802 320.395 36.1051L325.456 39.9472C321.959 44.3065 317.07 46.4739 310.79 46.4739C305.63 46.4739 301.677 44.7868 298.943 41.4126C296.209 38.0385 295.249 33.9008 296.061 28.9874C296.874 24.2956 299.066 20.4165 302.662 17.3625C306.246 14.3085 310.408 12.7815 315.149 12.7815V12.8062ZM303.684 26.8939H322.451C322.488 24.2463 321.799 22.2883 320.37 21.0076C318.942 19.7269 317.045 19.0865 314.706 19.0865C312.181 19.0865 309.952 19.7762 308.019 21.1677C306.073 22.5592 304.632 24.468 303.696 26.8939H303.684Z" fill="#181632"/>
<path d="M364 13.6441L349.777 29.5174L358.939 45.6617H351.378L345.147 34.6772L335.307 45.6617H326.921L341.896 28.951L333.202 13.6441H340.763L346.526 23.7912L355.614 13.6441H364Z" fill="#181632"/>
<path d="M25.3805 35.7616L28.2571 38.73C27.8102 38.9494 27.3434 39.1369 26.8647 39.3005C26.3659 39.4681 25.8513 39.6077 25.3246 39.7154C24.2155 39.9588 23.0505 40.0705 21.8536 40.0705L15.4621 46.6575C14.736 47.252 13.6627 46.5897 13.8622 45.6641L14.0218 40.0705C4.25898 40.0705 -0.744111 34.4051 0.0897374 24.4029C0.528605 19.1325 3.9398 14.7997 8.5519 12.7809C9.14238 12.5176 9.75281 12.2982 10.3792 12.1186C10.9737 11.9471 11.5801 11.8114 12.1985 11.7157C10.842 14.0337 10.06 16.7028 10.06 19.5076C10.06 33.6511 19.2882 35.7616 24.79 35.7616H25.3805Z" fill="#181632"/>
<path d="M52.8696 17.8319C52.0796 8.27252 43.7411 0.783844 33.8905 0.783844H26.2343C21.2432 0.783844 16.5074 2.73082 12.8967 6.27368C10.9697 8.1648 9.50145 10.3791 8.5519 12.7809C7.70608 14.9034 7.26721 17.1776 7.26721 19.5075C7.26721 31.2173 13.5789 38.2911 24.1916 38.5464L25.3246 39.7154L31.6244 46.2107L31.7401 46.3184C32.2228 46.7134 32.8053 46.9168 33.3878 46.9168C33.8546 46.9168 34.3294 46.7852 34.7563 46.5258C35.6779 45.9633 36.1487 44.9339 35.9811 43.8767L35.8295 38.5225C41.3872 38.2671 45.708 36.5037 48.6844 33.268C52.0158 29.6494 53.4241 24.4548 52.8696 17.8319ZM34.3932 35.7616H32.9569L33.1843 43.8088L28.2571 38.7299L25.3805 35.7616H24.79C19.2882 35.7616 10.06 33.6511 10.06 19.5075C10.06 16.7028 10.842 14.0337 12.1985 11.7156C15.0192 6.90006 20.3136 3.57664 26.2343 3.57664H33.8905C42.3008 3.57664 49.4145 9.94022 50.0887 18.0633C50.5715 23.8763 49.4065 28.3567 46.6297 31.3769C43.9526 34.2854 39.8352 35.7616 34.3932 35.7616Z" fill="#181632"/>
<path d="M20.3375 15.5218V23.8084C20.3375 24.5784 19.7111 25.2048 18.9411 25.2048C18.1711 25.2048 17.5447 24.5784 17.5447 23.8084V15.5218C17.5447 14.7518 18.1711 14.1254 18.9411 14.1254C19.7111 14.1254 20.3375 14.7518 20.3375 15.5218Z" fill="#181632"/>
<path d="M27.7943 13.0363V26.2941C27.7943 27.0641 27.1679 27.6905 26.3979 27.6905C25.6278 27.6905 25.0015 27.0641 25.0015 26.2941V13.0363C25.0015 12.765 25.0813 12.5096 25.2209 12.2942C25.4643 11.8992 25.8991 11.6399 26.3979 11.6399C27.1679 11.6399 27.7943 12.2662 27.7943 13.0363Z" fill="#181632"/>
<path d="M35.2509 13.0363V26.2941C35.2509 26.6132 35.1432 26.9045 34.9597 27.1399C34.7083 27.475 34.3054 27.6905 33.8545 27.6905C33.0805 27.6905 32.4581 27.0641 32.4581 26.2941V13.0363C32.4581 12.2662 33.0805 11.6399 33.8545 11.6399C34.6285 11.6399 35.2509 12.2662 35.2509 13.0363Z" fill="#181632"/>
<path d="M42.7038 15.5218V23.8084C42.7038 24.5784 42.0814 25.2048 41.3074 25.2048C40.5334 25.2048 39.911 24.5784 39.911 23.8084V15.5218C39.911 14.7518 40.5374 14.1254 41.3074 14.1254C42.0774 14.1254 42.7038 14.7518 42.7038 15.5218Z" fill="#181632"/>
</svg>
