<svg width="171" height="238" viewBox="0 0 171 238" fill="none" xmlns="http://www.w3.org/2000/svg">
<path d="M95.0436 201.088C100.974 195.688 119.173 185.768 117.823 178.568C117.773 178.308 117.823 178.058 118.093 178.058L117.823 178.568L111.463 151.848L77.0235 152.188L73.8335 174.928C73.6535 190.868 90.3235 199.498 90.3435 199.518C92.5035 200.958 94.1636 203.048 93.0636 205.428L95.0436 201.098V201.088Z" fill="#F0F7FE"/>
<path d="M121.314 146.658V156.178L125.544 153.908L130.574 156.178L135.774 154.638L141.944 157.478L151.044 152.188L163.064 151.848C163.064 151.848 172.564 105.208 167.704 62.3179C162.844 19.4279 141.634 4.18787 121.314 1.97787C100.994 -0.232132 84.7339 9.45787 84.7339 9.45787C84.7339 9.45787 53.134 -0.192133 28.034 20.6779C1.35397 42.8579 -0.766054 66.3979 2.88395 115.318C6.53395 164.238 8.43397 161.958 11.284 159.868C14.134 157.778 13.704 162.348 15.564 159.488C17.424 156.628 15.034 138.838 15.034 138.838L20.9739 152.188L23.6139 150.528L28.024 151.298L30.064 156.558L32.314 148.988L37.5839 132.288L40.564 142.938L42.1339 154.638L46.394 152.188L48.674 136.038L59.8739 144.438L65.8339 141.058L69.8839 139.918L120.004 146.368" fill="#D7EBFF"/>
<path d="M55.1348 140.288L57.1448 142.588L61.5747 145.578L67.0648 148.148L78.7548 151.858L90.9348 153.768L105.605 152.998L113.955 149.938L120.035 146.368L122.585 143.808L55.1348 136.508V140.288Z" fill="#AFD8FF"/>
<path d="M143.625 54.0979C143.625 54.0979 145.795 105.008 143.745 118.238C141.075 135.408 124.795 145.628 111.465 151.848C98.1346 158.068 71.7847 153.028 58.3147 144.888C44.8447 136.748 43.2546 113.348 43.2546 113.348L51.9646 106.988C51.9646 106.988 47.6847 112.558 42.0647 113.648C28.7147 116.238 16.9446 101.278 26.0846 89.8579C35.2246 78.4379 45.4946 87.7679 45.4946 87.7679L25.5246 88.7979L27.5447 79.6179L32.7446 83.3679L34.3646 76.7079L37.4046 80.3279L41.2146 81.1879L42.8546 74.6079L45.1847 78.3279L49.2546 82.8679L52.3047 86.4679L53.3446 79.0779L55.1346 65.3179L57.1446 59.4379L60.9247 66.7279L64.3047 72.4879L64.7746 67.2579L65.8346 52.9279L66.8746 48.5579L69.7947 49.9579L72.0846 54.7879L76.3246 59.6779L79.3746 61.3179L80.9046 57.6779L83.7446 49.4979L85.5647 46.9279L88.2346 52.9579L91.9546 59.3979L93.9446 57.2379L95.3746 53.5879L96.6246 54.1379L98.8246 53.5879L101.625 51.9879L103.485 54.8079L106.365 57.5279L109.145 57.1679L111.365 53.5879L115.155 56.1979L118.905 56.9379L122.555 53.1879L126.315 53.8179L131.075 52.9579L134.755 56.0979L138.735 56.5979L143.625 54.1379V54.0979Z" fill="#F0F7FE"/>
<path d="M46.6439 86.6279C44.3039 84.5279 41.1739 83.0979 38.0639 82.6879C31.6839 81.8479 25.8338 86.1379 22.9738 91.6479C17.2238 102.738 26.8838 115.308 38.6338 115.568C44.3338 115.698 49.6538 112.598 53.1038 108.138C53.6438 107.438 53.7738 106.528 53.1038 105.838C52.5538 105.268 51.3439 105.148 50.8039 105.838C48.4239 108.908 44.8838 111.658 40.9638 112.198C36.2438 112.848 31.4538 111.018 28.1938 107.578C24.9338 104.138 23.5939 99.4279 25.0639 94.9679C26.6239 90.2279 31.3339 85.7279 36.5239 85.8179C38.5139 85.8479 40.4439 86.4979 42.1739 87.4679C42.7739 87.8079 43.3439 88.1779 43.9039 88.5779C44.2639 88.8279 43.7439 88.4379 44.1639 88.7779C44.2239 88.8279 44.2738 88.8779 44.3338 88.9279C45.8838 90.3279 48.1938 88.0379 46.6338 86.6279H46.6439Z" fill="#181632"/>
<path d="M37.6633 90.0479C36.1533 91.6079 34.8932 93.5279 33.9932 95.4879C32.2032 99.3679 31.8333 103.608 33.8033 107.508C34.2033 108.288 35.3032 108.518 36.0232 108.088C36.8232 107.618 37.0032 106.648 36.6032 105.868C35.0732 102.848 35.6232 99.4479 37.0232 96.6379C37.6032 95.4779 38.3032 94.3879 39.0732 93.3579C39.1732 93.2279 38.8632 93.6079 39.1032 93.3279C39.1732 93.2379 39.2532 93.1479 39.3232 93.0579C39.4232 92.9379 39.5332 92.8079 39.6332 92.6879C39.7332 92.5779 39.8332 92.4579 39.9432 92.3479C41.4032 90.8479 39.1032 88.5479 37.6432 90.0479H37.6633Z" fill="#181632"/>
<path d="M34.7945 100.868C35.0445 100.768 35.2945 100.688 35.5545 100.618C35.8445 100.538 36.1345 100.468 36.4245 100.408C36.5945 100.378 36.7645 100.338 36.9345 100.318C37.0145 100.308 37.0845 100.298 37.1645 100.278C37.3745 100.248 36.7444 100.318 37.1344 100.278C37.5544 100.238 37.9745 100.208 38.4045 100.208C38.6245 100.208 38.8345 100.218 39.0545 100.238C39.1645 100.238 39.2744 100.258 39.3844 100.268C39.4344 100.268 39.6144 100.288 39.3544 100.268C39.0644 100.238 39.3545 100.268 39.4245 100.288C39.8845 100.378 40.3144 100.508 40.7544 100.658C41.0144 100.738 40.4545 100.508 40.7845 100.668C40.8945 100.718 41.0044 100.768 41.1044 100.828C41.3344 100.958 41.5545 101.098 41.7745 101.248C42.0745 101.448 41.6044 101.078 41.8744 101.328C41.9844 101.428 42.1044 101.528 42.2044 101.638C42.3044 101.748 42.4245 101.858 42.5245 101.978C42.5645 102.018 42.6045 102.068 42.6445 102.118C42.8945 102.398 42.5445 101.938 42.6445 102.118C42.8145 102.418 43.0344 102.688 43.1944 102.998C43.2844 103.158 43.3644 103.328 43.4444 103.498C43.4744 103.568 43.5045 103.628 43.5345 103.698C43.4045 103.388 43.5844 103.848 43.5944 103.868C43.8944 104.688 44.6944 105.248 45.5944 104.998C46.3844 104.778 47.0344 103.828 46.7244 102.998C45.7144 100.278 43.8045 98.0679 40.9345 97.2879C39.0145 96.7679 36.9445 96.8878 35.0245 97.3778C34.6445 97.4678 34.2745 97.5779 33.9045 97.7179C33.0845 98.0379 32.5145 98.8079 32.7745 99.7179C32.9845 100.498 33.9545 101.178 34.7745 100.848L34.7945 100.868Z" fill="#181632"/>
<path d="M41.6235 113.348C41.8935 117.308 42.7035 121.308 43.7535 125.128C45.6835 132.098 48.8635 139.328 54.4735 144.108C57.4835 146.668 61.1235 148.388 64.7435 149.908C68.8735 151.638 73.1736 152.968 77.5336 153.988C86.2136 156.018 95.4436 157.048 104.304 155.628C108.164 155.008 111.614 153.628 115.104 151.898C118.994 149.968 122.774 147.818 126.344 145.338C133.624 140.288 140.064 133.818 143.424 125.488C145.694 119.848 145.914 113.738 146.094 107.738C146.304 100.798 146.254 93.8478 146.164 86.9078C146.014 76.1578 145.704 65.4078 145.264 54.6678C145.264 54.4778 145.244 54.2878 145.244 54.0978C145.154 52.0178 141.904 52.0078 141.994 54.0978C142.364 62.8478 142.624 71.6078 142.804 80.3578C142.944 87.3478 143.034 94.3278 142.974 101.318C142.924 106.628 142.894 111.998 142.244 117.268C142.184 117.738 142.274 117.058 142.244 117.338C142.224 117.448 142.213 117.568 142.193 117.678C142.133 118.078 142.064 118.478 141.984 118.878C141.764 120.038 141.474 121.188 141.114 122.318C140.484 124.328 139.634 126.248 138.594 128.078C136.504 131.788 133.714 135.028 130.564 137.878C127.414 140.728 124.014 143.118 120.414 145.278C117.024 147.318 113.454 149.328 109.784 150.798C102.434 153.728 93.7735 153.368 86.0835 152.278C77.6135 151.088 69.0136 148.768 61.4236 144.768C58.2436 143.098 55.5135 141.018 53.3235 138.138C51.1335 135.258 49.5935 132.128 48.3735 128.838C47.2835 125.918 46.4635 122.888 45.8435 119.838C45.6035 118.638 45.3935 117.438 45.2135 116.228C45.1135 115.568 45.1435 115.808 45.0735 115.208C45.0335 114.868 44.9935 114.528 44.9535 114.178C44.9235 113.898 44.8935 113.608 44.8735 113.328C44.7335 111.248 41.4835 111.238 41.6235 113.328V113.348Z" fill="#181632"/>
<path d="M92.6733 113.148C95.3633 114.088 98.1833 114.758 101.003 115.208C105.363 115.898 110.723 116.378 114.613 113.818C123.503 107.988 113.023 97.7979 108.013 93.5779C105.653 91.5779 103.173 89.6679 100.583 87.9779L101.383 89.3779V84.1879C101.383 82.0979 98.1333 82.0979 98.1333 84.1879C98.1333 85.8579 98.0633 87.5379 98.1333 89.1979C98.1933 90.4579 99.1433 90.8979 100.053 91.5379C103.273 93.7779 106.363 96.2479 109.153 98.9979C110.753 100.578 112.283 102.258 113.453 104.178C113.933 104.968 114.323 105.718 114.573 106.588C114.783 107.298 114.853 108.018 114.753 108.528C114.433 110.088 112.893 111.308 111.223 111.848C108.993 112.568 106.583 112.558 104.273 112.368C100.653 112.068 96.9633 111.228 93.5333 110.018C91.5533 109.328 90.7033 112.458 92.6733 113.148Z" fill="#181632"/>
<path d="M98.2444 113.788C98.9844 116.928 99.7344 120.058 100.474 123.198L102.474 121.198C99.3644 120.288 96.1245 119.728 92.9145 119.388C88.2845 118.908 82.5045 118.828 78.7845 122.108C75.0645 125.388 74.7144 131.588 76.1944 136.028C77.9544 141.318 82.2945 145.358 87.9345 145.978C93.5745 146.598 99.3045 143.948 102.544 139.498C103.774 137.808 100.954 136.178 99.7344 137.858C99.6244 138.008 100.054 137.488 99.7945 137.778C99.6045 137.998 99.4144 138.218 99.2144 138.438C98.6444 139.038 98.0344 139.608 97.3744 140.098C95.1744 141.738 92.5244 142.738 89.7644 142.808C85.1744 142.928 81.2944 140.108 79.5944 135.898C78.2244 132.488 77.9644 127.388 80.8444 124.618C83.7244 121.848 88.9244 122.258 92.5144 122.598C95.5744 122.888 98.6544 123.468 101.604 124.328C102.834 124.688 103.884 123.508 103.604 122.328C102.864 119.188 102.114 116.058 101.374 112.918C100.894 110.888 97.7544 111.748 98.2444 113.778V113.788Z" fill="#181632"/>
<path d="M97.3838 122.438C97.5738 123.318 97.7537 124.188 97.9437 125.068C98.0637 125.648 98.4838 126.428 97.7638 126.638C97.5238 126.708 97.1438 126.638 96.8938 126.638H94.7738C90.2038 126.598 85.6338 126.568 81.0638 126.538C79.8138 126.538 78.5538 126.518 77.3038 126.518C75.2138 126.508 75.2138 129.758 77.3038 129.768C80.9738 129.788 84.6437 129.808 88.3237 129.838L95.3337 129.878C96.7937 129.878 98.5038 130.128 99.7838 129.288C102.464 127.548 101.064 124.058 100.534 121.568C100.104 119.528 96.9638 120.388 97.4038 122.428L97.3838 122.438Z" fill="#181632"/>
<path d="M98.0345 142.168C97.8045 140.488 97.9145 138.278 96.2645 137.278C95.2845 136.678 93.9645 136.798 92.8545 136.768L81.9545 136.428C80.8945 136.398 79.8345 136.358 78.7745 136.328C76.6845 136.268 76.6845 139.518 78.7745 139.578C81.2545 139.658 83.7345 139.728 86.2245 139.808L91.5446 139.968L93.5145 140.028C93.8245 140.028 94.3245 140.148 94.6245 140.058C94.8845 139.978 94.4145 139.988 94.5145 139.948C94.4645 139.968 94.5145 139.858 94.5145 140.088C94.5145 140.128 94.5245 140.158 94.5245 140.198C94.5445 140.358 94.5645 140.518 94.5945 140.678C94.7045 141.458 94.8045 142.238 94.9145 143.018C95.0345 143.888 96.1445 144.368 96.9145 144.148C97.8545 143.888 98.1645 143.018 98.0445 142.148L98.0345 142.168Z" fill="#181632"/>
<path d="M54.8239 55.3579C53.0739 63.6479 51.434 72.2379 51.224 80.7179C51.194 81.8679 51.2039 83.0179 51.3239 84.1679C51.3839 84.7379 51.4539 85.3079 51.5839 85.8679C51.6239 86.0479 51.674 86.2179 51.724 86.3979C51.754 86.4779 51.774 86.5579 51.804 86.6379C52.014 87.2079 51.874 87.4879 51.844 86.4679L52.3239 85.3179C52.7039 85.1679 53.094 85.0079 53.474 84.8479C53.864 84.8679 54.2239 84.9479 54.3339 85.1379C54.2739 85.0279 54.094 84.9379 54.004 84.8479C53.684 84.5379 53.364 84.2279 53.054 83.9079C52.164 82.9779 51.334 81.9979 50.534 80.9979C48.304 78.1979 46.3239 75.0879 44.9539 71.7779C44.3539 70.3179 44.004 67.1979 41.724 67.7679C39.884 68.2279 40.254 70.6179 40.164 72.0479C40.054 73.7379 39.914 75.4279 39.644 77.0979C39.464 78.1679 39.204 80.0279 38.644 80.7179H40.9439C38.8339 78.2579 36.714 75.7979 34.604 73.3279C33.594 72.1579 31.9539 73.2079 31.8339 74.4779C31.5639 77.3179 31.294 80.1579 31.024 83.0079L32.644 81.3879C32.644 81.3879 32.484 81.3979 32.464 81.3779C32.464 81.3779 32.104 81.2879 32.414 81.3779C32.694 81.4579 32.324 81.3579 32.284 81.3579C31.864 81.2679 31.264 81.1079 31.014 80.9979C29.634 80.3679 29.054 79.2079 29.024 77.7279C28.974 75.6379 25.724 75.6279 25.774 77.7279C25.864 81.6179 28.744 84.5279 32.644 84.6479C33.584 84.6779 34.184 83.8779 34.264 83.0279C34.534 80.1879 34.8039 77.3479 35.0739 74.4979L32.304 75.6479C34.414 78.1079 36.534 80.5679 38.644 83.0379C39.174 83.6579 40.4139 83.6879 40.9439 83.0379C42.2739 81.4079 42.624 79.1879 42.904 77.1579C43.084 75.8679 43.2239 74.5679 43.3339 73.2579C43.3839 72.6479 43.4239 72.0279 43.4639 71.4179C43.4939 70.9679 43.4039 70.2779 43.5739 69.8679L42.8239 70.8379L42.994 70.7579L41.744 70.9179L41.924 70.9579L40.9539 70.2079C41.3039 70.6879 41.424 71.5779 41.644 72.1479C41.924 72.8679 42.224 73.5879 42.554 74.2979C43.184 75.6679 43.9039 76.9879 44.6939 78.2679C46.0539 80.4779 47.604 82.5679 49.284 84.5479C50.214 85.6479 51.2339 86.9779 52.4639 87.7779C53.1639 88.2279 54.024 88.2779 54.654 87.6579C55.124 87.2079 55.1639 86.6479 55.0839 86.0479C55.0639 85.9079 54.824 85.3379 54.984 85.8079C54.924 85.6479 54.8739 85.4779 54.8239 85.3179C54.4939 84.1179 54.494 82.8779 54.504 81.4379C54.524 79.4579 54.674 77.4879 54.874 75.5179C55.294 71.4279 55.934 67.3679 56.644 63.3179C57.064 60.9579 57.504 58.6079 57.994 56.2579C58.424 54.2179 55.294 53.3479 54.864 55.3979L54.8239 55.3579Z" fill="#181632"/>
<path d="M75.4539 151.758C74.5239 158.398 73.5939 165.028 72.6639 171.668C72.5339 172.608 72.4039 173.548 72.2639 174.498C72.1439 175.378 72.4739 176.228 73.3939 176.498C74.1539 176.718 75.2739 176.228 75.3939 175.368C76.3239 168.728 77.254 162.098 78.184 155.458C78.314 154.518 78.4439 153.578 78.5839 152.628C78.7039 151.748 78.3739 150.898 77.4539 150.628C76.6939 150.408 75.5739 150.898 75.4539 151.758Z" fill="#181632"/>
<path d="M109.894 152.288C111.744 160.078 113.603 167.868 115.453 175.658C115.723 176.768 115.984 177.888 116.254 178.998C116.734 181.028 119.874 180.168 119.384 178.138C117.534 170.348 115.673 162.558 113.823 154.768C113.553 153.658 113.294 152.538 113.024 151.428C112.544 149.398 109.404 150.258 109.894 152.288Z" fill="#181632"/>
<path d="M119.445 178.568L119.295 178.948L118.325 179.698C118.125 179.778 118.375 179.658 118.555 179.678C118.715 179.698 118.885 179.678 119.055 179.678C119.485 179.678 119.925 179.698 120.355 179.708C121.455 179.748 122.555 179.818 123.655 179.928C125.935 180.158 128.385 180.518 130.465 181.528C132.205 182.378 132.925 183.218 132.555 184.978C132.115 187.038 131.505 189.058 130.845 191.048C127.395 201.488 122.705 211.728 117.215 221.248C115.275 224.618 113.325 228.048 110.525 230.628C110.465 230.678 110.145 230.938 110.325 230.798C110.515 230.648 110.145 230.928 110.095 230.948C109.995 231.008 109.895 231.058 109.805 231.118C109.495 231.318 109.905 230.998 109.805 231.128C109.755 231.198 109.575 231.158 109.515 231.208C109.635 231.118 109.955 231.208 109.635 231.168C109.695 231.168 110.175 231.198 109.875 231.198C110.125 231.198 110.135 231.478 109.915 231.188C109.835 231.078 109.725 230.968 109.625 230.868C109.365 230.568 109.105 230.268 108.855 229.968C108.265 229.258 107.685 228.538 107.115 227.808C103.845 223.588 100.825 219.108 98.3547 214.358C97.2147 212.168 96.1847 209.898 95.5947 207.498C95.3547 206.528 95.2147 205.728 95.2347 204.738C95.2447 204.048 95.4048 203.328 95.6748 202.858C95.9248 202.418 95.8648 202.538 96.2648 202.158C96.6648 201.778 97.1248 201.418 97.5648 201.058C98.5248 200.288 99.5248 199.558 100.525 198.828C103.005 197.028 105.525 195.278 107.975 193.428C110.425 191.578 112.925 189.628 115.105 187.398C116.805 185.668 118.485 183.658 119.205 181.298C119.525 180.248 119.565 179.188 119.385 178.108C119.045 176.048 115.915 176.918 116.255 178.968C116.335 179.478 116.145 180.408 115.795 181.158C115.265 182.288 114.475 183.278 113.655 184.208C111.525 186.578 109.005 188.598 106.475 190.518C103.945 192.438 101.195 194.338 98.5548 196.258C96.6848 197.618 94.2047 199.058 92.9547 201.068C90.3747 205.218 93.1748 211.168 95.0648 215.008C97.6048 220.158 100.875 224.968 104.375 229.508C105.455 230.908 106.525 232.518 107.855 233.698C108.985 234.698 110.495 234.518 111.705 233.768C113.105 232.898 114.195 231.568 115.185 230.278C116.585 228.468 117.835 226.538 119.025 224.578C122.085 219.498 124.745 214.178 127.205 208.788C129.665 203.398 132.025 197.798 133.915 192.118C134.615 190.018 135.265 187.898 135.715 185.738C136.255 183.158 135.525 181.008 133.365 179.448C131.205 177.888 128.555 177.338 126.055 176.958C123.715 176.608 121.355 176.428 118.995 176.408C117.575 176.398 116.145 176.798 116.215 178.538C116.295 180.618 119.545 180.638 119.465 178.538L119.445 178.568Z" fill="#181632"/>
<path d="M57.8441 180.978C56.0141 188.648 56.6542 196.908 58.6742 204.468C61.7542 215.988 68.4541 226.688 76.9741 234.978C78.9941 236.948 82.0242 238.048 84.4242 235.988C86.4042 234.278 87.0242 231.478 87.6742 229.068C88.4642 226.148 89.2041 223.208 89.9741 220.288C90.7441 217.368 91.5942 214.298 92.5542 211.348C92.9442 210.158 93.3542 208.968 93.8142 207.798C94.2942 206.568 95.0042 205.388 95.0442 204.038C95.1542 200.488 91.9842 198.718 89.4042 197.068C81.7942 192.208 75.4341 184.348 75.4641 174.928C75.4641 173.808 74.4242 173.158 73.4042 173.358C70.9142 173.848 68.4442 174.508 66.0442 175.318C63.2142 176.278 58.7541 177.708 57.8441 180.978C57.2741 182.998 60.4141 183.858 60.9741 181.838C60.9941 181.768 60.9642 181.718 61.1842 181.428C61.1042 181.538 61.5041 181.098 61.6241 180.998C62.0441 180.638 62.6641 180.268 63.2241 179.978C64.7041 179.188 66.2941 178.628 67.8941 178.128C69.9841 177.468 72.1141 176.908 74.2641 176.488L72.2041 174.918C72.1641 183.878 77.1941 191.698 84.0141 197.158C85.7241 198.528 87.5041 199.708 89.3741 200.828C90.8041 201.688 92.2342 203.098 91.5342 204.848C90.5842 207.238 89.6642 209.598 88.9042 212.058C87.2142 217.548 85.8941 223.148 84.3941 228.688C84.0741 229.868 83.7941 231.088 83.2341 232.188C82.8941 232.848 82.3241 233.618 81.8541 233.798C81.2241 234.048 80.2241 233.518 79.7641 233.128C78.4641 232.028 77.3341 230.688 76.2041 229.418C73.9441 226.888 71.8541 224.208 69.9741 221.378C66.8841 216.728 64.3541 211.718 62.6341 206.398C60.1041 198.588 59.0741 189.758 60.9741 181.818C61.4641 179.788 58.3241 178.918 57.8441 180.958V180.978Z" fill="#181632"/>
<path d="M59.413 181.408C57.163 190.718 57.033 212.528 78.023 233.728C78.023 233.728 83.093 239.378 85.573 230.558C87.633 223.228 90.2131 211.588 93.0631 205.418C94.1631 203.048 92.503 200.948 90.343 199.508C90.323 199.488 73.653 190.868 73.833 174.918C73.833 174.918 60.343 177.538 59.403 181.408H59.413Z" fill="#181632"/>
<path d="M83.7341 76.7179C86.0758 76.7179 87.9741 74.8195 87.9741 72.4779C87.9741 70.1362 86.0758 68.2379 83.7341 68.2379C81.3924 68.2379 79.4941 70.1362 79.4941 72.4779C79.4941 74.8195 81.3924 76.7179 83.7341 76.7179Z" fill="#181632"/>
<path d="M83.7333 92.8178C84.628 92.8178 85.3533 92.0925 85.3533 91.1978C85.3533 90.3031 84.628 89.5779 83.7333 89.5779C82.8386 89.5779 82.1133 90.3031 82.1133 91.1978C82.1133 92.0925 82.8386 92.8178 83.7333 92.8178Z" fill="#AFD8FF"/>
<path d="M84.2137 101.168C85.1084 101.168 85.8337 100.443 85.8337 99.5479C85.8337 98.6532 85.1084 97.9279 84.2137 97.9279C83.319 97.9279 82.5938 98.6532 82.5938 99.5479C82.5938 100.443 83.319 101.168 84.2137 101.168Z" fill="#AFD8FF"/>
<path d="M71.1141 95.5179C72.0088 95.5179 72.7341 94.7926 72.7341 93.8979C72.7341 93.0032 72.0088 92.2779 71.1141 92.2779C70.2194 92.2779 69.4941 93.0032 69.4941 93.8979C69.4941 94.7926 70.2194 95.5179 71.1141 95.5179Z" fill="#AFD8FF"/>
<path d="M93.9344 95.5179C94.8291 95.5179 95.5544 94.7926 95.5544 93.8979C95.5544 93.0032 94.8291 92.2779 93.9344 92.2779C93.0397 92.2779 92.3145 93.0032 92.3145 93.8979C92.3145 94.7926 93.0397 95.5179 93.9344 95.5179Z" fill="#AFD8FF"/>
<path d="M73.8348 88.0879C74.7295 88.0879 75.4548 87.3626 75.4548 86.4679C75.4548 85.5732 74.7295 84.8479 73.8348 84.8479C72.9401 84.8479 72.2148 85.5732 72.2148 86.4679C72.2148 87.3626 72.9401 88.0879 73.8348 88.0879Z" fill="#AFD8FF"/>
<path d="M74.9735 103.468C75.8682 103.468 76.5935 102.743 76.5935 101.848C76.5935 100.953 75.8682 100.228 74.9735 100.228C74.0788 100.228 73.3535 100.953 73.3535 101.848C73.3535 102.743 74.0788 103.468 74.9735 103.468Z" fill="#AFD8FF"/>
<path d="M118.874 97.4879C119.769 97.4879 120.494 96.7626 120.494 95.8679C120.494 94.9732 119.769 94.2479 118.874 94.2479C117.979 94.2479 117.254 94.9732 117.254 95.8679C117.254 96.7626 117.979 97.4879 118.874 97.4879Z" fill="#AFD8FF"/>
<path d="M127.585 90.8778C128.48 90.8778 129.205 90.1526 129.205 89.2579C129.205 88.3631 128.48 87.6378 127.585 87.6378C126.69 87.6378 125.965 88.3631 125.965 89.2579C125.965 90.1526 126.69 90.8778 127.585 90.8778Z" fill="#AFD8FF"/>
<path d="M133.755 103.738C134.649 103.738 135.375 103.013 135.375 102.118C135.375 101.223 134.649 100.498 133.755 100.498C132.86 100.498 132.135 101.223 132.135 102.118C132.135 103.013 132.86 103.738 133.755 103.738Z" fill="#AFD8FF"/>
<path d="M126.823 107.558C127.718 107.558 128.443 106.833 128.443 105.938C128.443 105.043 127.718 104.318 126.823 104.318C125.928 104.318 125.203 105.043 125.203 105.938C125.203 106.833 125.928 107.558 126.823 107.558Z" fill="#AFD8FF"/>
<path d="M136.063 95.2079C136.958 95.2079 137.683 94.4826 137.683 93.5879C137.683 92.6932 136.958 91.9679 136.063 91.9679C135.169 91.9679 134.443 92.6932 134.443 93.5879C134.443 94.4826 135.169 95.2079 136.063 95.2079Z" fill="#AFD8FF"/>
<path d="M114.644 76.7179C116.986 76.7179 118.884 74.8195 118.884 72.4779C118.884 70.1362 116.986 68.2379 114.644 68.2379C112.303 68.2379 110.404 70.1362 110.404 72.4779C110.404 74.8195 112.303 76.7179 114.644 76.7179Z" fill="#181632"/>
<path d="M55.5644 60.7579C55.1144 60.6679 54.6743 60.5179 54.2443 60.3679C54.0843 60.3079 53.4643 60.0479 53.8943 60.2379C53.6243 60.1179 53.3643 59.9979 53.1043 59.8679C52.5343 59.5779 51.9842 59.2579 51.4542 58.8979C51.2942 58.7879 51.1443 58.6779 50.9943 58.5679C50.7843 58.4179 51.0743 58.6379 50.8043 58.4179C50.4843 58.1579 50.1743 57.8779 49.8743 57.5879C49.2243 56.9479 48.7642 56.3979 48.3242 55.7479C47.1742 54.0279 46.4943 52.1279 46.1243 50.0879C45.5143 46.6379 45.9643 43.0479 46.7343 39.6679C47.1943 37.6279 44.0643 36.7579 43.6043 38.8079C42.2743 44.6579 41.9143 51.2179 45.0243 56.5979C46.7943 59.6579 49.5742 61.9679 52.8242 63.2979C53.4242 63.5479 54.0542 63.7779 54.6942 63.9079C56.7342 64.3079 57.6143 61.1679 55.5543 60.7779L55.5644 60.7579Z" fill="#181632"/>
<path d="M70.3631 47.7278C67.2431 42.8178 65.183 36.0278 67.193 30.3478C67.893 28.3778 64.7531 27.5278 64.0631 29.4878C62.5431 33.7678 63.1031 38.5178 64.5231 42.7478C65.2931 45.0278 66.2731 47.3378 67.5631 49.3778C68.6831 51.1378 71.4931 49.5078 70.3731 47.7378L70.3631 47.7278Z" fill="#181632"/>
<path d="M131.914 21.4978C134.634 25.4578 136.914 29.8078 138.794 34.2078C140.344 37.8478 141.614 41.6678 142.214 45.5878C142.494 47.4278 142.594 49.3178 142.444 51.1678C142.414 51.6178 142.364 52.0678 142.284 52.5078C142.264 52.6478 142.084 53.5278 142.184 53.3078C141.994 53.7278 141.574 54.1378 141.284 54.4978C140.964 54.8978 140.644 55.2878 140.304 55.6578C140.044 55.9378 139.524 56.2978 139.334 56.6278C139.404 56.4978 139.194 57.0878 139.214 56.6978C140.274 56.8878 140.614 56.8878 140.244 56.6678C140.154 56.6178 140.164 56.6178 140.274 56.6878C140.194 56.4878 139.884 56.2478 139.754 56.0478C138.994 54.9778 138.404 53.7578 137.864 52.5678C137.264 51.2478 135.234 51.7078 134.894 52.9578C134.594 54.0478 133.634 54.9478 132.764 55.6278L135.484 56.3478C134.984 54.6178 134.474 52.8978 133.974 51.1678C133.664 50.1078 133.154 49.1578 131.894 49.0678C129.864 48.9278 129.954 51.1078 128.844 52.1678C128.354 52.6278 128.384 52.7078 127.734 52.2478C127.124 51.8178 126.604 51.1878 126.144 50.6078C125.194 49.3978 124.464 47.3478 122.574 47.7278C120.284 48.1878 120.904 51.4578 120.904 53.1478L122.524 51.5278C121.854 51.5278 121.164 51.4678 120.504 51.5278C119.534 51.6178 119.134 52.2178 118.664 52.9478C117.834 54.2178 116.994 55.4878 116.164 56.7578L118.714 56.4278L115.374 53.5078C114.324 52.5878 113.124 51.3378 111.714 51.0678C109.434 50.6378 108.484 52.4678 107.714 54.1778C107.104 55.5378 106.484 56.8978 105.874 58.2678H108.684C107.554 56.3378 106.414 54.4078 105.284 52.4878C104.284 50.7878 102.484 46.4078 99.8542 48.6378C99.0742 49.2978 98.7742 50.4878 98.2842 51.3678C98.0642 51.7678 97.7743 52.1378 97.5543 52.5378C98.0843 51.6078 97.3442 52.7678 97.3542 52.7478C98.1942 52.5678 98.7442 52.7478 98.9942 53.2978L98.9542 53.1278C99.1042 52.4978 98.8642 51.5478 98.8942 50.8778C98.9242 49.7578 99.0142 48.6378 99.1242 47.5278C99.2142 46.5478 99.4042 45.5578 98.6442 44.7678C97.9542 44.0578 96.7643 43.9078 95.9343 44.4578C94.5643 45.3578 94.1142 48.0378 93.6942 49.5178C92.8142 52.5678 92.1242 55.6678 91.5342 58.7878L92.6642 57.6578C92.7442 57.6378 93.8543 57.7278 93.8143 57.9178C93.8143 57.8978 93.6843 57.8178 93.6743 57.7878C93.6743 57.7578 93.3742 57.4378 93.4542 57.5478C93.0642 57.0578 92.7542 56.4878 92.4442 55.9478C91.6442 54.5678 90.9342 53.1478 90.2342 51.7178C89.5342 50.2878 88.8542 48.8378 88.1942 47.3778C87.5342 45.9178 86.5142 44.5978 84.6642 44.8478C82.8142 45.0978 82.2542 46.5878 81.7442 48.1278C81.2042 49.7778 80.7142 51.4478 80.2242 53.1178C79.7642 54.6578 79.3142 56.1978 78.7742 57.7078C78.6142 58.1378 78.4542 58.5678 78.2542 58.9778C78.1942 59.1078 78.0742 59.4378 78.0742 59.3178C78.0742 59.0478 78.1443 59.4078 78.0543 59.3178C77.3943 58.6778 79.3742 58.9778 79.3342 59.0178C79.3642 58.9878 79.2342 58.9078 79.3342 59.0178C79.1742 58.8578 78.9843 58.7178 78.8143 58.5578C78.4043 58.1678 78.0242 57.7478 77.6542 57.3278C76.7142 56.2678 75.8342 55.1578 74.9642 54.0378C74.0142 52.8078 73.0943 51.5678 72.1843 50.3178C71.4143 49.2578 70.6943 47.8678 69.6843 47.0178C68.4443 45.9678 66.5042 46.0078 65.3342 47.1578C64.4542 48.0278 64.1442 49.4378 63.8642 50.6078C63.2242 53.3178 62.9743 56.1178 62.7943 58.8878C62.5043 63.4078 62.4642 67.9678 62.6442 72.4978L65.8342 72.0678C65.0542 68.2978 62.8942 64.6378 61.1442 61.2578C59.1142 57.3578 56.9642 53.5078 54.7542 49.7078C54.2842 48.8878 53.8042 48.0778 53.3242 47.2678C52.2542 45.4678 49.4442 47.1078 50.5142 48.9078C54.1742 55.0578 57.7442 61.3178 60.7642 67.8078C61.5242 69.4478 62.3242 71.1478 62.6942 72.9278C63.0642 74.7078 65.9642 74.3178 65.8842 72.4978C65.7442 68.9078 65.7542 65.3078 65.8842 61.7278C65.9842 59.0078 66.1443 56.2778 66.5643 53.5878C66.7443 52.4378 66.9742 51.2778 67.3242 50.1578C67.3742 49.9978 67.4443 49.5878 67.5543 49.4778C67.6343 49.3978 67.5742 49.4778 67.5142 49.4878C67.7042 49.4678 68.1142 50.2378 68.2742 50.4678C70.0242 52.9178 71.8142 55.3378 73.6942 57.6878C74.8542 59.1278 76.4143 61.5578 78.3143 62.1078C80.6743 62.7978 81.5442 59.4978 82.0842 57.8978C83.1242 54.8078 83.9242 51.6278 84.9742 48.5378C85.0142 48.4178 85.1242 48.2278 85.1242 48.0978C85.1242 47.8078 85.1743 48.1178 85.0443 48.0578C84.7443 47.8978 84.9442 48.1578 85.0942 48.4878C85.4442 49.2378 85.7842 49.9978 86.1342 50.7478C86.8942 52.3778 87.6742 54.0078 88.5042 55.6078C89.3342 57.2078 91.0142 61.4578 93.4742 60.7878C93.9842 60.6478 94.5042 60.1978 94.6042 59.6578C95.0542 57.2678 95.5843 54.8878 96.1843 52.5378C96.6043 50.8778 97.0642 49.2178 97.6542 47.6178C97.7242 47.4278 97.9342 47.0878 97.9542 46.8778L95.9343 46.3378C95.9143 46.4778 95.9042 46.6278 95.8842 46.7678C95.8342 46.9678 95.8442 47.1778 95.8242 47.3778C95.7242 48.3778 95.6442 49.3878 95.6042 50.3878C95.5442 51.7878 95.3442 53.6978 96.1442 54.9378C97.2942 56.7178 99.2742 55.5778 100.234 54.2878C100.824 53.4978 101.274 52.6178 101.684 51.7278C101.774 51.5478 101.944 51.3178 101.964 51.1178C102.024 50.4178 100.644 51.6078 100.534 50.9178C100.544 51.0078 100.654 51.0878 100.684 51.1678C101.044 52.0878 101.744 52.9778 102.254 53.8278C103.444 55.8578 104.644 57.8878 105.834 59.9178C106.404 60.8878 108.124 61.0678 108.644 59.9178C109.164 58.7678 109.644 57.6878 110.144 56.5778C110.414 55.9678 110.714 55.3678 110.964 54.7478C111.134 54.3378 111.054 54.3678 111.284 54.3978C111.534 54.4378 111.914 54.8678 112.124 55.0078C112.604 55.3378 111.844 54.7278 112.144 55.0278C112.574 55.4678 113.084 55.8578 113.554 56.2678L116.374 58.7478C117.184 59.4578 118.324 59.3378 118.924 58.4178C119.894 56.9378 120.864 55.4678 121.834 53.9878L120.434 54.7878H122.494C123.374 54.7878 124.114 54.0478 124.114 53.1678V50.9078C124.114 50.6878 124.224 50.0978 124.114 49.9078C124.134 49.5078 123.804 49.6178 123.134 50.2378C122.194 50.2378 121.924 50.4678 122.334 50.9078C122.454 51.1878 122.734 51.5078 122.904 51.7578C124.334 53.7778 126.794 56.8078 129.614 55.5378C130.914 54.9478 131.894 53.7578 132.454 52.4678C132.554 52.2478 132.644 52.0178 132.734 51.7778C131.124 50.9178 130.424 50.8278 130.634 51.5278C130.634 51.5978 130.694 51.6678 130.694 51.7478C130.714 52.0778 130.904 52.4678 130.994 52.7778C131.434 54.2678 131.864 55.7578 132.304 57.2478C132.674 58.5178 134.084 58.7078 135.024 57.9678C136.344 56.9278 137.534 55.4978 137.984 53.8578L135.014 54.2478C135.914 56.2478 138.034 61.2678 140.954 59.4478C142.464 58.5178 143.584 56.8078 144.624 55.4078C145.664 54.0078 145.634 51.9178 145.684 50.2978C145.984 41.6378 142.154 32.9478 138.064 25.5178C137.004 23.5978 135.894 21.6978 134.654 19.8878C133.414 18.0778 130.664 19.7978 131.844 21.5278L131.914 21.4978Z" fill="#181632"/>
<path d="M131.895 30.3478C134.325 36.1478 135.865 44.8778 131.115 49.8878C129.675 51.4078 131.975 53.7078 133.415 52.1878C137.015 48.3778 137.775 43.0278 137.155 37.9978C136.805 35.1178 136.155 32.1778 135.025 29.4878C134.685 28.6778 133.945 28.0978 133.025 28.3578C132.265 28.5678 131.545 29.5378 131.895 30.3578V30.3478Z" fill="#181632"/>
<path d="M83.5842 8.31785C79.5942 12.6478 76.1443 18.2578 74.8143 24.0278C73.1843 31.1478 75.1542 39.4478 79.5342 45.2578C80.5142 46.5578 81.5942 47.7978 82.8942 48.7878C83.5942 49.3278 84.7042 48.8878 85.1142 48.2078C85.6142 47.3778 85.2242 46.5178 84.5342 45.9878C85.2242 46.5178 84.3442 45.7978 84.1642 45.6278C83.5942 45.0878 83.0642 44.5078 82.5742 43.9078C81.0142 41.9978 79.7541 39.6178 78.9441 37.2378C77.7441 33.7278 77.1042 29.6678 77.7342 25.9778C78.3642 22.2878 80.0543 18.8478 82.0643 15.7078C83.2043 13.9278 84.4542 12.1878 85.8842 10.6278C87.3142 9.06785 85.0042 6.78785 83.5842 8.32785V8.31785Z" fill="#181632"/>
<path d="M84.734 11.0879C84.734 11.0879 84.824 11.0879 84.874 11.0979C85.324 11.1479 84.474 11.0179 84.894 11.0979C85.394 11.1879 85.894 11.2679 86.384 11.3779C87.904 11.7179 89.744 12.3179 90.904 12.8379C95.464 14.8879 99.174 18.2179 101.364 22.7479C103.154 26.4479 103.714 30.6079 103.694 34.6679C103.684 36.7579 106.934 36.7579 106.944 34.6679C106.994 27.4279 105.004 20.1179 99.744 14.9179C96.474 11.6879 92.234 9.46785 87.794 8.36785C86.794 8.11785 85.764 7.91785 84.734 7.82785C82.654 7.64785 82.664 10.8979 84.734 11.0779V11.0879Z" fill="#181632"/>
<path d="M95.0331 6.15786C98.6431 7.70786 101.793 10.1079 104.543 12.6179C110.973 18.4979 115.223 26.2579 116.573 34.8879C117.693 41.9779 116.753 49.2579 114.853 56.1379C114.293 58.1579 117.433 59.0179 117.983 56.9979C121.203 45.3279 121.343 32.7279 115.673 21.7779C112.223 15.1179 106.843 9.49786 100.523 5.47786C99.293 4.69786 98.0131 3.92786 96.6631 3.34786C94.7631 2.52786 93.103 5.32786 95.023 6.15786H95.0331Z" fill="#181632"/>
<path d="M118.195 20.5379C122.785 27.8779 123.205 37.9779 117.515 44.8179C116.185 46.4179 118.475 48.7279 119.815 47.1179C124.255 41.7879 125.775 35.1979 124.535 28.4279C123.935 25.1579 122.775 21.7379 120.995 18.9079C119.885 17.1379 117.075 18.7679 118.185 20.5479L118.195 20.5379Z" fill="#181632"/>
<path d="M84.7331 7.83785C82.0331 7.59785 79.2731 7.71785 76.5831 7.99785C71.3831 8.53785 65.9732 9.80785 61.6432 12.8678C56.0932 16.7978 53.6331 23.4279 53.1131 30.0379C52.6431 36.0379 54.3231 42.0578 57.4731 47.1478C59.1731 49.8978 61.3031 52.6579 63.8431 54.6879C65.4631 55.9779 67.7732 53.6978 66.1432 52.3878C60.4432 47.8278 56.5632 40.2478 56.3032 32.9778C56.0932 27.0879 57.7831 20.1678 62.4931 16.2778C66.1331 13.2578 71.0732 11.9378 75.6832 11.3478C78.6532 10.9678 81.7431 10.8178 84.7431 11.0778C86.8231 11.2578 86.8131 8.00785 84.7431 7.82785L84.7331 7.83785Z" fill="#181632"/>
<path d="M13.4644 139.278C15.4244 145.788 17.8444 152.538 21.4444 158.348C22.0544 159.328 23.6845 159.478 24.2545 158.348C25.4845 155.888 26.7144 153.428 27.9444 150.968L24.9744 150.578C25.8244 153.498 26.6745 156.428 27.5245 159.348C27.9145 160.688 29.7745 160.948 30.4945 159.738C31.9645 157.268 33.1244 154.588 34.2144 151.928C36.6844 145.898 38.3545 139.598 39.1845 133.138C39.2945 132.258 38.3545 131.518 37.5645 131.518C36.5945 131.508 36.0544 132.278 35.9444 133.138C35.1544 139.288 33.4344 145.328 31.0944 151.058C30.1144 153.458 29.0244 155.858 27.7044 158.088L30.6745 158.478C29.8245 155.558 28.9745 152.628 28.1245 149.708C27.7545 148.438 25.8045 148.028 25.1545 149.318C23.9245 151.778 22.6944 154.238 21.4644 156.698H24.2745C20.8145 151.108 18.5045 144.658 16.6145 138.398C16.0145 136.398 12.8745 137.248 13.4845 139.258L13.4644 139.278Z" fill="#181632"/>
<path d="M57.1437 22.3079C59.2337 22.3079 59.2337 19.0579 57.1437 19.0579C55.0537 19.0579 55.0537 22.3079 57.1437 22.3079Z" fill="#181632"/>
<path d="M26.4032 109.678C26.6032 116.878 26.7931 124.088 26.9931 131.288C27.0231 132.328 27.0531 133.358 27.0731 134.398C27.1331 136.488 30.3831 136.498 30.3231 134.398C30.1231 127.198 29.9331 119.988 29.7331 112.788C29.7031 111.748 29.6732 110.718 29.6532 109.678C29.5932 107.588 26.3432 107.578 26.4032 109.678Z" fill="#181632"/>
<path d="M21.2246 123.048V157.528C21.2246 159.618 24.4746 159.618 24.4746 157.528V123.048C24.4746 120.958 21.2246 120.958 21.2246 123.048Z" fill="#181632"/>
<path d="M119.684 146.658V156.178C119.684 157.448 121.054 158.158 122.134 157.578C123.544 156.818 124.954 156.058 126.364 155.308H124.724L127.344 156.498C128.224 156.898 129.194 157.508 130.134 157.748C131.074 157.988 132.364 157.348 133.244 157.078C134.224 156.788 135.214 156.498 136.194 156.198L134.944 156.038C136.904 156.938 138.854 157.848 140.814 158.738C141.674 159.128 142.344 159.108 143.154 158.648C144.094 158.118 145.014 157.568 145.944 157.028L149.564 154.928C150.174 154.568 151.334 154.178 151.804 153.628C151.804 153.628 150.634 153.768 151.274 153.808C151.654 153.838 152.054 153.788 152.444 153.778L156.194 153.678C158.484 153.618 160.774 153.548 163.064 153.488C163.734 153.468 164.484 152.998 164.634 152.298C166.504 143.108 167.704 133.748 168.704 124.428C170.814 104.748 171.574 84.7678 169.614 65.0378C167.994 48.6479 164.024 31.6778 153.694 18.4378C146.714 9.49785 136.834 3.17785 125.674 1.00785C112.014 -1.64215 96.8939 1.05785 84.6539 7.64785C84.4039 7.77785 84.1539 7.91785 83.9139 8.05785L85.1639 7.89785C80.4439 6.52785 75.3939 5.94785 70.5139 5.66785C60.0839 5.06785 49.4439 6.53785 39.8939 10.8878C30.3439 15.2378 21.9838 23.3778 15.4438 31.8778C10.0638 38.8778 6.06391 46.7978 3.65391 55.2978C0.923906 64.9478 0.123891 75.0778 0.0138911 85.0678C-0.136109 98.6778 0.95394 112.298 2.06394 125.848C2.83394 135.168 3.51388 144.578 5.12388 153.808C5.44388 155.648 5.77394 157.538 6.43394 159.288C6.83394 160.338 7.34389 161.478 8.38389 162.048C9.32389 162.558 10.3539 162.368 11.2439 161.858C11.4939 161.718 11.7238 161.528 11.9538 161.368C12.1138 161.248 12.2838 161.138 12.4538 161.028C13.1438 160.578 12.1739 161.108 12.3039 160.788C12.1839 161.078 13.7838 161.968 13.9538 162.018C15.8338 162.518 17.1639 160.408 17.5139 158.848C17.9139 157.118 17.9039 155.268 17.8739 153.498C17.8139 149.388 17.4039 145.288 16.9339 141.208C16.8439 140.418 16.7439 139.628 16.6439 138.838C16.5239 137.958 15.9839 137.228 15.0239 137.218C14.2339 137.218 13.2839 137.978 13.4039 138.838C14.1339 144.328 14.7939 149.968 14.6239 155.508C14.6039 156.178 14.5739 156.858 14.4839 157.518C14.5139 157.338 14.4039 157.928 14.3739 158.048C14.3339 158.198 14.1439 158.748 14.2239 158.588C14.3339 158.368 13.8939 158.958 13.8939 159.008L13.8238 159.078C14.1938 158.778 14.6138 158.748 15.0738 158.988C15.2138 158.908 15.2839 159.288 15.1039 158.988C14.7839 158.468 14.1039 158.018 13.5439 157.828C12.0539 157.308 10.8039 158.198 9.6439 159.018C9.5639 159.078 9.46389 159.108 9.38389 159.158C9.20389 159.288 9.89383 159.008 9.45383 159.118C9.10383 159.208 9.98385 159.098 9.59385 159.098C9.30385 159.098 10.1638 159.188 9.71384 159.098C10.1338 159.178 10.1338 159.298 9.94382 159.188C9.75382 159.078 9.83387 158.978 10.1139 159.338C10.0639 159.278 9.92386 159.108 9.85386 159.078C10.1939 159.238 10.0138 159.358 9.82383 158.988C9.72383 158.798 9.63392 158.608 9.54392 158.418C9.81392 158.998 9.49393 158.258 9.42393 158.068C9.32393 157.758 9.2239 157.458 9.1439 157.148C8.9439 156.418 8.77388 155.678 8.62388 154.938C8.14388 152.628 7.80388 150.248 7.50388 147.938C6.32388 138.858 5.6039 129.718 4.8939 120.588C4.0239 109.408 3.22388 98.1978 3.25388 86.9778C3.28388 71.3578 4.98387 55.3578 12.8639 41.5578C16.6339 34.9478 21.5639 29.1178 27.0339 23.8478C30.6139 20.3978 34.4338 17.3578 38.8338 15.0278C42.9338 12.8578 47.3339 11.3078 51.8539 10.2978C59.4339 8.59785 67.3339 8.42785 75.0339 9.31785C77.3039 9.57785 79.6239 9.95785 81.9039 10.4578C82.9939 10.6978 84.4639 11.3578 85.5439 10.8778C86.9639 10.2478 88.3139 9.41785 89.7439 8.78785C93.3239 7.19785 97.0839 5.96785 100.894 5.03785C109.614 2.92785 118.944 2.52785 127.654 4.79785C141.474 8.39785 151.724 18.6578 157.814 31.3078C162.274 40.5778 164.654 50.8379 165.904 61.0079C167.414 73.2979 167.684 85.7478 167.294 98.1078C166.754 115.088 165.014 132.118 161.974 148.838C161.814 149.708 161.654 150.578 161.484 151.438L163.054 150.248C159.724 150.338 156.384 150.438 153.054 150.528C152.024 150.558 150.924 150.438 149.994 150.938C148.454 151.758 146.964 152.698 145.454 153.578C143.944 154.458 142.564 155.258 141.114 156.098H142.754C140.724 155.168 138.714 154.128 136.654 153.288C135.534 152.828 134.534 153.328 133.434 153.658C132.334 153.988 131.234 154.308 130.134 154.638L131.384 154.798C129.714 154.048 128.064 153.198 126.364 152.528C125.134 152.048 124.194 152.808 123.144 153.368C122.254 153.848 121.374 154.318 120.484 154.798L122.934 156.198V146.678C122.934 144.588 119.684 144.588 119.684 146.678V146.658Z" fill="#181632"/>
<path d="M158.784 95.8579C158.564 101.348 158.324 106.838 158.074 112.318C157.624 121.968 157.154 131.628 156.454 141.258C156.304 143.348 156.144 145.428 155.944 147.508C155.864 148.308 155.784 149.108 155.694 149.908C155.674 150.088 155.654 150.258 155.634 150.438C155.604 150.708 155.674 150.158 155.614 150.608C155.574 150.878 155.534 151.158 155.484 151.428C155.134 153.478 158.264 154.348 158.614 152.288C159.134 149.268 159.334 146.188 159.574 143.138C159.924 138.548 160.204 133.948 160.464 129.348C160.984 120.188 161.404 111.028 161.794 101.858C161.884 99.8579 161.964 97.8479 162.044 95.8479C162.124 93.8479 158.874 93.7579 158.794 95.8479L158.784 95.8579Z" fill="#181632"/>
<path d="M139.033 127.698C139.413 136.388 139.783 145.078 140.163 153.768C140.213 155.008 140.273 156.238 140.323 157.478C140.413 159.558 143.663 159.568 143.573 157.478C143.193 148.788 142.823 140.098 142.443 131.408C142.393 130.168 142.333 128.938 142.283 127.698C142.193 125.618 138.943 125.608 139.033 127.698Z" fill="#181632"/>
<path d="M132.685 136.508C133.115 141.788 133.535 147.068 133.965 152.348C134.025 153.108 134.085 153.868 134.145 154.628C134.215 155.498 134.845 156.248 135.765 156.248C136.585 156.248 137.465 155.498 137.385 154.628C136.955 149.348 136.535 144.068 136.105 138.788C136.045 138.028 135.985 137.268 135.925 136.508C135.855 135.638 135.225 134.888 134.305 134.888C133.485 134.888 132.605 135.638 132.685 136.508Z" fill="#181632"/>
<path d="M127.265 141.448C127.755 145.738 128.245 150.038 128.735 154.328C128.805 154.948 128.875 155.568 128.945 156.178C129.045 157.048 129.625 157.798 130.565 157.798C131.365 157.798 132.295 157.048 132.185 156.178C131.695 151.888 131.205 147.588 130.715 143.298C130.645 142.678 130.575 142.058 130.505 141.448C130.405 140.578 129.825 139.828 128.885 139.828C128.085 139.828 127.155 140.578 127.265 141.448Z" fill="#181632"/>
<path d="M19.3834 42.0779C17.9434 44.0979 16.7635 46.3379 15.6535 48.5579C12.8235 54.2279 10.6634 60.2479 9.21339 66.4179C8.14339 70.9879 7.47349 75.6579 7.18349 80.3479C7.05349 82.4379 10.3035 82.4279 10.4335 80.3479C11.1735 68.3179 14.6334 56.1779 20.8534 45.8079C21.2734 45.0979 21.7135 44.3879 22.1835 43.7179C23.4035 42.0079 20.5834 40.3879 19.3734 42.0779H19.3834Z" fill="#181632"/>
<path d="M24.6429 49.9479C25.1029 59.4079 25.5029 68.8679 25.7629 78.3279C25.8529 81.4479 25.9229 84.5779 25.9229 87.6979C25.9229 89.7879 29.1729 89.7879 29.1729 87.6979C29.1729 76.2479 28.5829 64.7979 28.0529 53.3579C28.0029 52.2179 27.9529 51.0779 27.8929 49.9379C27.7929 47.8579 24.5429 47.8479 24.6429 49.9379V49.9479Z" fill="#181632"/>
<path d="M152.664 152.188C152.754 137.798 152.424 123.368 151.424 109.018C151.064 103.778 150.583 98.5479 149.833 93.3479C149.703 92.4679 148.603 92.0079 147.833 92.2179C146.893 92.4679 146.573 93.3479 146.703 94.2179C148.063 103.628 148.534 113.188 148.904 122.688C149.224 130.888 149.384 139.088 149.424 147.298C149.424 148.928 149.434 150.568 149.424 152.198C149.414 154.288 152.664 154.288 152.674 152.198L152.664 152.188Z" fill="#181632"/>
<path d="M99.5039 5.32785C102.824 5.06785 106.224 5.32785 109.524 5.71785C117.034 6.62785 124.484 8.88785 131.054 12.6679C137.624 16.4479 142.664 21.6679 146.434 28.1879C149.534 33.5479 151.764 39.3679 153.394 45.3279C154.024 47.6379 154.574 49.9679 155.004 52.3179C155.134 52.9979 155.244 53.6779 155.354 54.3579C155.384 54.5579 155.414 54.7579 155.444 54.9579C155.474 55.1779 155.374 54.4378 155.414 54.7678C155.524 55.6478 156.084 56.3879 157.034 56.3879C157.834 56.3879 158.764 55.6378 158.654 54.7678C157.534 45.7478 154.594 36.6279 150.364 28.6079C146.844 21.9279 142.084 16.0979 135.814 11.8279C128.964 7.16785 120.964 4.28785 112.814 2.93785C108.464 2.21785 103.904 1.72785 99.4838 2.07785C97.4138 2.23785 97.3938 5.49785 99.4838 5.32785H99.5039Z" fill="#181632"/>
<path d="M84.7335 11.0879C86.8235 11.0879 86.8235 7.83786 84.7335 7.83786C82.6435 7.83786 82.6435 11.0879 84.7335 11.0879Z" fill="#181632"/>
<path d="M47.1934 133.908C46.8034 140.298 46.4035 146.698 46.0135 153.088C45.9535 153.988 45.9034 154.898 45.8434 155.798L48.6134 154.648C47.5734 153.448 46.5435 152.238 45.5035 151.038C44.5535 149.938 42.7334 150.848 42.7334 152.188C42.7334 152.748 42.7035 153.318 42.6635 153.878C42.6335 154.248 42.6035 154.558 42.5235 154.908C42.4935 155.048 42.3735 155.298 42.3835 155.448C42.4535 155.308 42.4434 155.318 42.3634 155.468L44.5834 155.648C44.4434 155.628 44.5835 155.298 44.5335 155.588C44.5035 155.788 44.5334 155.588 44.4834 155.438C44.3834 155.118 44.2735 154.808 44.1735 154.488C43.8935 153.558 43.6535 152.608 43.4135 151.668C41.8235 145.388 40.4834 139.048 39.1234 132.718C38.6834 130.678 35.5534 131.538 35.9934 133.578C37.5334 140.748 38.9234 148.028 40.9734 155.078C41.1834 155.788 41.3735 156.608 41.7635 157.248C42.4135 158.318 43.8735 158.498 44.7835 157.628C46.0635 156.388 45.9935 153.858 46.0035 152.208L43.2334 153.358C44.2734 154.558 45.3034 155.768 46.3434 156.968C47.3834 158.168 49.0334 157.118 49.1134 155.818C49.5034 149.428 49.9035 143.028 50.2935 136.638C50.3535 135.738 50.4034 134.828 50.4634 133.928C50.5934 131.838 47.3434 131.848 47.2134 133.928L47.1934 133.908Z" fill="#181632"/>
</svg>
